<?xml version="1.0" encoding="UTF-8" standalone="no"?>
<svg width="291px" height="121px" viewBox="0 0 291 121" version="1.1" xmlns="http://www.w3.org/2000/svg" xmlns:xlink="http://www.w3.org/1999/xlink" xmlns:sketch="http://www.bohemiancoding.com/sketch/ns">
    <!-- Generator: Sketch 3.5.1 (25234) - http://www.bohemiancoding.com/sketch -->
    <title>Shape</title>
    <desc>Created with Sketch.</desc>
    <defs></defs>
    <g id="Landing-Pages" stroke="none" stroke-width="1" fill="none" fill-rule="evenodd" sketch:type="MSPage">
        <g id="Epi" sketch:type="MSArtboardGroup" transform="translate(-897.000000, -138.000000)" fill="#FF5336">
            <path d="M963.944969,150.254097 C956.738725,150.254097 950.890178,156.102644 950.890178,163.274076 L950.890178,183.88324 L976.199067,158.609164 C974.284364,153.665749 969.445388,150.254097 963.944969,150.254097 L963.944969,150.254097 L963.944969,150.254097 Z M1043.14404,258.452207 L1030.88994,258.452207 L1030.88994,170.09738 L981.838737,219.044144 C977.069386,223.813494 970.698648,226.459265 963.944969,226.459265 C949.985046,226.459265 938.636081,215.1103 938.636081,201.18519 L938.636081,170.132193 L905.668381,203.030267 L897,194.361885 L946.051202,145.415121 C950.646489,140.854648 956.982414,138 963.944969,138 C976.442756,138 987.234717,147.260199 989.044981,159.583922 C989.323484,161.498624 988.696854,163.413327 987.304343,164.805838 L950.890178,201.18519 C950.890178,208.356622 956.738725,214.205168 963.944969,214.205168 C967.426247,214.205168 970.698648,212.84747 973.170355,210.375763 L1037.99175,145.693624 C1042.58703,140.959086 1048.99258,138 1056.09439,138 C1070.05431,138 1081.40328,149.348965 1081.40328,163.274076 L1081.40328,194.327073 L1135.85046,140.053954 C1137.5911,138.313315 1140.23687,137.791123 1142.53451,138.731068 C1144.83216,139.671013 1146.32911,141.899031 1146.32911,144.405551 L1146.22467,209.783945 C1146.22467,212.325278 1148.66156,214.588109 1151.44658,214.588109 C1152.73466,214.588109 1153.9531,214.10073 1154.85824,213.160785 L1179.33162,188.722216 L1188,197.390597 L1163.52662,221.829166 C1160.28903,225.066754 1156.00706,226.807393 1151.44658,226.807393 C1146.92092,226.807393 1142.60414,225.066754 1139.26211,221.933604 C1135.81565,218.661203 1133.93576,214.344419 1133.93576,209.783945 L1134.00538,159.200981 L1074.44072,218.556765 C1069.81062,223.395741 1063.30063,226.424453 1056.09439,226.424453 L1053.17012,226.424453 L1053.17012,214.170355 L1056.09439,214.170355 C1059.68011,214.170355 1062.95251,212.708219 1065.31978,210.375763 L1065.31978,210.375763 L1065.77234,209.923197 C1067.89592,207.590741 1069.18399,204.527216 1069.18399,201.150377 L1069.18399,163.274076 C1069.18399,156.102644 1063.33545,150.254097 1056.1292,150.254097 C1052.5783,150.254097 1049.34071,151.716234 1046.97344,154.083503 L1046.97344,154.083503 L1046.66013,154.396818 C1044.50173,156.729274 1043.17885,159.862424 1043.17885,163.274076 L1043.17885,258.452207 L1043.14404,258.452207 L1043.14404,258.452207 Z" id="Shape" sketch:type="MSShapeGroup"></path>
        </g>
    </g>
</svg>