<?xml version="1.0" encoding="iso-8859-1"?>
<!-- Generator: Adobe Illustrator 19.0.0, SVG Export Plug-In . SVG Version: 6.00 Build 0)  -->
<svg version="1.1" id="Capa_1" xmlns="http://www.w3.org/2000/svg" xmlns:xlink="http://www.w3.org/1999/xlink" x="0px" y="0px"
	 viewBox="0 0 452.986 452.986" style="enable-background:new 0 0 452.986 452.986;" xml:space="preserve">
<g>
	<g>
		<g>
			<path style="fill:#010002;" d="M0,0v452.986h452.986V0H0z M403.266,24.655c8.089,0,14.668,6.579,14.647,14.647
				c0,8.089-6.558,14.69-14.647,14.69c-8.089,0-14.668-6.601-14.668-14.69C388.619,31.256,395.177,24.655,403.266,24.655z
				 M352.035,24.655c8.046,0,14.647,6.579,14.625,14.647c0,8.089-6.579,14.69-14.625,14.69c-8.132,0-14.668-6.601-14.668-14.69
				C337.389,31.256,343.946,24.655,352.035,24.655z M417.934,418.624H35.053V85.701h382.881V418.624z"/>
			<path style="fill:#010002;" d="M356.716,247.352l-119.33,70.019c-9.426-3.624-20.384-2.61-29.207,3.775
				c-13.676,9.966-16.696,29.185-6.752,42.818c10.009,13.784,29.207,16.739,42.883,6.773c8.801-6.32,13.137-16.48,12.576-26.51
				l103.324-92.129L356.716,247.352z"/>
			<path style="fill:#010002;" d="M72.866,343.73c-2.092-10.181-3.171-20.708-3.171-31.493c0-8.283,0.841-16.372,2.092-24.31
				l31.45,6.816l4.681-21.571l-31.342-6.752c4.357-14.15,10.721-27.416,18.702-39.561l22.865,16.976l13.137-17.71l-22.541-16.739
				c10.268-11.627,22.218-21.657,35.506-29.811l13.029,24.569l19.478-10.332l-13.029-24.504
				c16.006-6.924,33.435-11.087,51.684-12.252v26.748h22.024v-26.64c18.227,1.381,35.527,5.889,51.468,13.029l-12.533,23.598
				l19.435,10.332l12.468-23.512c13.007,8.197,24.699,18.227,34.707,29.789l-21.161,15.704l13.137,17.71l21.247-15.768
				c7.701,11.95,13.913,24.957,18.119,38.871l-29.142,6.277l4.681,21.571l29.207-6.32c1.208,7.765,2.006,15.704,2.006,23.814
				c0,10.785-1.1,21.312-3.192,31.493h19.09c1.877-10.268,3.02-20.708,3.02-31.493c0-96.378-78.173-174.572-174.572-174.572
				c-96.443,0-174.594,78.194-174.594,174.572c0,10.785,1.122,21.226,2.977,31.493L72.866,343.73L72.866,343.73z"/>
		</g>
	</g>
	<g>
	</g>
	<g>
	</g>
	<g>
	</g>
	<g>
	</g>
	<g>
	</g>
	<g>
	</g>
	<g>
	</g>
	<g>
	</g>
	<g>
	</g>
	<g>
	</g>
	<g>
	</g>
	<g>
	</g>
	<g>
	</g>
	<g>
	</g>
	<g>
	</g>
</g>
<g>
</g>
<g>
</g>
<g>
</g>
<g>
</g>
<g>
</g>
<g>
</g>
<g>
</g>
<g>
</g>
<g>
</g>
<g>
</g>
<g>
</g>
<g>
</g>
<g>
</g>
<g>
</g>
<g>
</g>
</svg>
